<?xml version="1.0" encoding="UTF-8" standalone="no"?>
<!DOCTYPE svg PUBLIC "-//W3C//DTD SVG 1.1//EN" "http://www.w3.org/Graphics/SVG/1.1/DTD/svg11.dtd">
<svg width="100%" height="100%" viewBox="0 0 667 667" version="1.1" xmlns="http://www.w3.org/2000/svg" xmlns:xlink="http://www.w3.org/1999/xlink" xml:space="preserve" xmlns:serif="http://www.serif.com/" style="fill-rule:evenodd;clip-rule:evenodd;stroke-linecap:round;stroke-miterlimit:1.5;">
    <g transform="matrix(1.33333,0,0,1.33333,0,0)">
        <g transform="matrix(1.11326,0,0,1.18085,-56.6316,-58.3945)">
            <path d="M500,128.572C500,84.904 462.338,49.451 415.949,49.451L134.92,49.451C88.531,49.451 50.87,84.904 50.87,128.572L50.87,393.117C50.87,436.785 88.531,472.238 134.92,472.238L415.949,472.238C462.338,472.238 500,436.785 500,393.117L500,128.572ZM483.158,128.572L483.158,393.117C483.158,428.028 453.035,456.36 415.949,456.36L134.92,456.36C97.834,456.36 67.712,428.028 67.712,393.117L67.712,128.572C67.712,93.661 97.834,65.329 134.92,65.329L415.949,65.329C453.035,65.329 483.158,93.661 483.158,128.572Z" style="fill:rgb(128,6,6);"/>
        </g>
        <g transform="matrix(0.750002,0,0,0.750002,0,0)">
            <path d="M113,217C113,217 69.901,262.898 69.905,332.332C69.909,395.679 108,438 108,438" style="fill:none;stroke:rgb(128,6,6);stroke-width:25px;"/>
        </g>
        <g transform="matrix(0.492083,0,0,0.492083,63.3375,81.4685)">
            <path d="M113,217C113,217 69.901,262.898 69.905,332.332C69.909,395.679 108,438 108,438" style="fill:none;stroke:rgb(128,6,6);stroke-width:38.1px;"/>
        </g>
        <g transform="matrix(-0.492083,0,0,0.502264,437.664,79.2592)">
            <path d="M113,217C113,217 69.901,262.898 69.905,332.332C69.909,395.679 108,438 108,438" style="fill:none;stroke:rgb(128,6,6);stroke-width:37.71px;"/>
        </g>
        <g transform="matrix(-0.750002,0,0,0.750002,501.001,6.3949e-14)">
            <path d="M113,217C113,217 69.901,262.898 69.905,332.332C69.909,395.679 108,438 108,438" style="fill:none;stroke:rgb(128,6,6);stroke-width:25px;"/>
        </g>
        <g transform="matrix(0.750002,0,0,0.750002,0,0)">
            <path d="M450,158.701C450,148.292 446.268,138.748 440.069,131.335C432.234,121.964 420.458,116 407.299,116L260.701,116C237.134,116 218,135.134 218,158.701L218,518.299C218,541.866 237.134,561 260.701,561L407.299,561C430.866,561 450,541.866 450,518.299L450,158.701ZM334,522C342.279,522 349,528.721 349,537C349,545.279 342.279,552 334,552C325.721,552 319,545.279 319,537C319,528.721 325.721,522 334,522ZM428,179.031C428,165.216 416.784,154 402.969,154L265.031,154C251.216,154 240,165.216 240,179.031L240,485.969C240,499.784 251.216,511 265.031,511L402.969,511C416.784,511 428,499.784 428,485.969L428,179.031ZM367.832,132L298.832,132L298.832,141L367.832,141L367.832,132Z" style="fill:rgb(128,6,6);"/>
        </g>
    </g>
</svg>
