<?xml version="1.0" encoding="UTF-8" standalone="no"?>
<!DOCTYPE svg PUBLIC "-//W3C//DTD SVG 1.1//EN" "http://www.w3.org/Graphics/SVG/1.1/DTD/svg11.dtd">
<svg width="100%" height="100%" viewBox="0 0 667 667" version="1.1" xmlns="http://www.w3.org/2000/svg" xmlns:xlink="http://www.w3.org/1999/xlink" xml:space="preserve" xmlns:serif="http://www.serif.com/" style="fill-rule:evenodd;clip-rule:evenodd;stroke-linecap:round;stroke-linejoin:round;stroke-miterlimit:1.5;">
    <path d="M152.798,223C155.786,205.073 173.978,189.818 191.816,182.893C201.219,179.243 208.534,177.582 214,177.124C230.675,175.725 235.887,188.774 227,196C220.764,201.07 206.306,200.049 195.089,209.275C182.431,219.687 181.532,227.986 175,237C171.044,242.459 148.356,249.659 152.798,223Z" style="fill:rgb(128,6,6);"/>
    <g transform="matrix(-1,0,0,1,666.512,0.104001)">
        <path d="M152.798,223C155.786,205.073 173.978,189.818 191.816,182.893C201.219,179.243 208.534,177.582 214,177.124C230.675,175.725 235.887,188.774 227,196C220.764,201.07 206.306,200.049 195.089,209.275C182.431,219.687 181.532,227.986 175,237C171.044,242.459 148.356,249.659 152.798,223Z" style="fill:rgb(128,6,6);"/>
    </g>
    <path d="M123,156C156.211,126.605 191.823,125.644 203,126C215.926,126.412 221.546,140.888 207,146C188.316,152.567 171.82,150.642 152.052,164.082C131.808,177.846 124.841,188.19 117,216C111.709,234.767 89.377,236.339 90,213C90.41,197.654 102.274,174.345 123,156Z" style="fill:rgb(128,6,6);stroke:rgb(128,6,6);stroke-width:1px;"/>
    <g transform="matrix(-1,0,0,1,665.99,-1.42109e-14)">
        <path d="M123,156C156.211,126.605 191.823,125.644 203,126C215.926,126.412 221.546,140.888 207,146C188.316,152.567 171.82,150.642 152.052,164.082C131.808,177.846 124.841,188.19 117,216C111.709,234.767 89.377,236.339 90,213C90.41,197.654 102.274,174.345 123,156Z" style="fill:rgb(128,6,6);stroke:rgb(128,6,6);stroke-width:1px;"/>
    </g>
    <path d="M333.678,304C265.638,304 245.786,311.367 241,314C225.24,322.67 226.843,329.682 227,335.968C227.181,343.245 228.658,354.32 225,358C216.19,366.863 194.094,382.562 172,386C163.965,387.25 151.34,383.758 145,373C137.28,359.9 134.882,353.956 135,343C135.108,332.982 143.546,313.251 159,302C188.257,280.7 226.71,272.454 254,269C282.457,265.399 295.446,264 333.331,264C411.217,264 466.447,278.123 486,289C503.894,298.954 531.295,314.856 531,344C530.791,364.678 515.956,394.694 485,384C473.792,380.128 452.449,367.809 445,362C440.953,358.844 439.231,353.505 439.027,343.623C438.754,330.383 441.176,322.557 427,315C418.545,310.492 401.718,304 333.678,304Z" style="fill:rgb(128,6,6);"/>
    <path d="M163.261,495.464L504.062,495.464L504.062,460C504.062,460 506.26,440.997 475,420C443.79,399.037 414.384,397.551 403,347C401.241,339.19 390.946,335.415 383.332,340C373.22,346.088 372.077,346.474 364,347C357.748,347.407 307.265,346.822 299,347C290.735,347.178 283.58,337.845 278,339C271.465,340.353 272.257,336.286 265,346C256.064,357.96 257.823,377.406 239,392C219.768,406.911 192.554,416.53 182,426.473C171.365,436.492 163.221,446.071 163.261,458C163.32,475.741 163.261,495.464 163.261,495.464ZM333.331,391C367.367,391 395,413.628 395,441.5C395,469.372 367.367,492 333.331,492C299.295,492 271.662,469.372 271.662,441.5C271.662,413.628 299.295,391 333.331,391Z" style="fill:rgb(128,6,6);"/>
    <g transform="matrix(1.48434,0,0,1.57447,-75.5086,-77.8591)">
        <path d="M500,128.572C500,84.904 462.338,49.451 415.949,49.451L134.92,49.451C88.531,49.451 50.87,84.904 50.87,128.572L50.87,393.117C50.87,436.785 88.531,472.238 134.92,472.238L415.949,472.238C462.338,472.238 500,436.785 500,393.117L500,128.572ZM483.158,128.572L483.158,393.117C483.158,428.028 453.035,456.36 415.949,456.36L134.92,456.36C97.834,456.36 67.712,428.028 67.712,393.117L67.712,128.572C67.712,93.661 97.834,65.329 134.92,65.329L415.949,65.329C453.035,65.329 483.158,93.661 483.158,128.572Z" style="fill:rgb(128,6,6);"/>
    </g>
    <path d="M163.261,518.586L504.062,518.586L504.061,530.678C504.061,530.678 503.554,546.548 490,546.548L178,546.548C178,546.548 163.261,544.99 163.261,530.548C163.261,516.106 163.261,518.586 163.261,518.586Z" style="fill:rgb(128,6,6);"/>
</svg>
